<svg width="361" height="253" viewBox="0 0 361 253" fill="none" xmlns="http://www.w3.org/2000/svg">
<path d="M197.837 156.921C194.72 232.343 154.585 231.382 101.528 232.343C52.9371 233.224 4.81529 246.982 5.67668 156.921C6.18759 103.444 48.6923 60.0872 101.756 60.0872C154.82 60.0872 200.044 103.494 197.837 156.921Z" fill="#E6E6E6"/>
<path d="M355.467 136.002C352.071 242.209 335.885 234.014 231.836 231.21C166.57 229.451 103.115 250.302 104.24 136.002C104.908 68.1319 160.479 13.1058 229.853 13.1058C264.315 13.1058 296.249 26.7006 319.307 48.6956C342.667 70.9772 356.558 101.863 355.467 136.002Z" fill="#E6E6E6"/>
<path d="M338.73 219.31L21.5462 219.285L17.7061 214.449H341.78L338.73 219.31Z" fill="#FAFAFA"/>
<path d="M346.418 245.879H5.47363L21.5462 219.285L338.73 219.31L346.418 245.879Z" fill="#C3C3C3"/>
<path opacity="0.2" d="M313.839 228.682C319.379 228.682 323.87 228.052 323.87 227.274C323.87 226.497 319.379 225.867 313.839 225.867C308.3 225.867 303.809 226.497 303.809 227.274C303.809 228.052 308.3 228.682 313.839 228.682Z" fill="#5C5C5C"/>
<path d="M295.272 206.17C294.511 208.176 294.084 210.405 294.084 212.753C294.084 221.455 299.903 228.52 307.121 228.649C312.06 222.839 313.818 214.16 313.921 206.17H295.272Z" fill="#8E8E8E"/>
<path d="M319.37 206.17H313.921C313.818 214.16 312.06 222.839 307.121 228.649C307.188 228.65 307.255 228.655 307.321 228.655C314.632 228.655 320.558 221.536 320.558 212.753C320.558 210.405 320.131 208.176 319.37 206.17Z" fill="#7E7E7E"/>
<path d="M307.288 207.385C313.969 207.385 319.385 206.841 319.385 206.17C319.385 205.499 313.969 204.954 307.288 204.954C300.607 204.954 295.191 205.499 295.191 206.17C295.191 206.841 300.607 207.385 307.288 207.385Z" fill="#505050"/>
<path d="M300.575 149.934C299.891 147.265 299.111 144.337 299.111 144.337L298.05 144.183C298.05 144.183 298.503 145.906 299.156 148.499C299.697 148.927 300.164 149.411 300.575 149.934Z" fill="#343434"/>
<path d="M305.56 171.592C304.902 167.664 301.697 154.401 300.965 151.475C300.844 150.989 300.711 150.466 300.575 149.934C300.165 149.411 299.698 148.927 299.156 148.499C300.671 154.519 303.267 165.251 303.815 170.182C304.224 173.872 304.944 183.68 305.534 192.289L307.526 195.682C306.832 186.045 305.899 173.616 305.56 171.592Z" fill="#4B4B4B"/>
<path d="M305.534 192.289C306.073 200.143 306.505 206.999 306.496 207.297L308.345 207.318C308.345 207.318 307.989 202.124 307.525 195.681L305.534 192.289Z" fill="#343434"/>
<path d="M305.721 131.632C306.171 129.022 302.88 127.315 300.638 126.338C298.397 125.362 295.931 124.931 294.539 123.572C293.148 122.213 290.547 119.232 287.828 119.056C285.109 118.88 281.088 118.725 277.633 117.645C275.385 116.942 272.582 118.936 268.58 117.72C268.725 117.8 271.032 118.864 271.186 118.922C274.617 120.067 278.905 119.495 282.907 121.785C284.908 122.929 288.338 121.212 289.768 123.502C292.912 128.081 296.915 129.513 300.631 132.661C303.805 135.838 302.327 141.953 298.24 144.21C298.387 144.232 298.648 144.27 299.112 144.337C308.765 145.739 305.27 134.241 305.721 131.632Z" fill="#818181"/>
<path d="M300.63 132.658C296.914 129.51 292.911 128.079 289.767 123.5C288.337 121.209 284.907 122.927 282.906 121.782C278.904 119.492 274.616 120.065 271.185 118.92C271.031 118.862 268.724 117.798 268.578 117.718C268.291 118.791 268.449 120.213 279.195 123.799C290.534 127.583 298.05 144.18 298.05 144.18C298.05 144.18 298.05 144.18 298.239 144.207C302.326 141.951 303.804 135.836 300.63 132.658Z" fill="#4B4B4B"/>
<path d="M287.569 165.632L286.699 166.205C287.147 167.088 287.575 167.934 287.987 168.749C288.981 169.647 289.882 170.544 290.778 171.442C289.475 168.898 288.345 166.822 287.569 165.632Z" fill="#343434"/>
<path d="M298.537 187.436C296.08 182.208 293.142 176.055 290.778 171.442C289.882 170.545 288.981 169.647 287.987 168.75C297.523 187.612 297.854 188.85 298.325 190.343C298.664 191.417 299.117 193.213 299.583 195.338L301.787 197.545C300.953 193.932 299.861 190.253 298.537 187.436Z" fill="#4B4B4B"/>
<path d="M303.488 207.251C303.196 204.698 302.621 201.154 301.787 197.545L299.583 195.338C300.379 198.972 301.212 203.57 301.569 207.174C302.329 207.212 302.854 207.255 303.488 207.251Z" fill="#343434"/>
<path d="M263.162 151.227C263.162 151.227 260.017 155.997 264.782 158.382C269.546 160.768 267.736 155.997 274.12 158.382C280.504 160.768 287.568 165.632 287.568 165.632C287.568 165.632 290.701 164.023 289.843 161.536C288.985 159.05 284.03 156.474 283.935 155.043C283.84 153.612 282.029 154.28 279.457 154.28C276.883 154.28 276.979 149.224 272.214 149.7C267.45 150.176 264.115 149.669 264.115 149.669L263.162 151.227Z" fill="#818181"/>
<path d="M286.699 166.205L287.569 165.633C288.178 166.696 284.887 159.834 282.03 159.527C279.361 159.241 273.93 157.428 272.882 156.951C271.834 156.474 266.883 158.248 264.782 158.382C264.222 158.418 266.986 159.288 270.011 159.491C271.879 159.617 273.371 159.082 274.026 159.336C275.741 160.004 284.647 162.989 286.699 166.205Z" fill="#4B4B4B"/>
<path d="M303.944 195.438C303.098 185.489 302.105 173.807 301.922 171.548C301.918 171.498 301.913 171.454 301.909 171.405C301.469 170.224 300.963 169.041 300.353 167.897L302.507 193.999L303.944 195.438Z" fill="#4B4B4B"/>
<path d="M300.564 163.502L299.991 163.534L300.041 164.114L300.353 167.897C300.963 169.041 301.469 170.224 301.909 171.405C301.585 167.561 301.081 166.72 300.564 163.502Z" fill="#343434"/>
<path d="M302.507 193.999L303.601 207.252C304.052 207.251 304.502 207.259 304.953 207.275C304.719 204.528 304.348 200.179 303.944 195.438L302.507 193.999Z" fill="#343434"/>
<path d="M300.389 164.556C300.858 164.536 303.502 162.819 303.717 160.958C303.931 159.098 302.493 155.707 301.823 155.091C301.154 154.475 299.786 162.461 299.786 162.461L300.389 164.556Z" fill="#343434"/>
<path d="M300.041 164.115C300.041 164.115 303.78 160.243 302.6 156.308C301.421 152.372 298.848 148.579 291.487 146.361C284.126 144.143 283.268 144.215 282.482 143.857C281.696 143.499 276.793 142.855 274.978 142.855C273.162 142.855 279.408 144.43 282.911 149.669C285.115 152.967 295.752 156.673 300.041 164.115Z" fill="#4B4B4B"/>
<path d="M308.581 194.796C307.848 200.017 307.186 204.529 306.778 207.3C307.268 207.324 307.854 207.306 308.345 207.318C308.842 204.279 309.674 199.097 310.564 193.104C309.953 193.793 309.422 194.454 308.581 194.796Z" fill="#343434"/>
<path d="M310.413 130.047L308.997 128.187C308.997 128.187 309.597 131.027 310.301 135.299C310.92 136.566 311.496 137.86 312.018 139.175C311.15 133.949 310.413 130.047 310.413 130.047Z" fill="#343434"/>
<path d="M312.018 139.175C311.496 137.86 310.92 136.566 310.301 135.299C311.447 142.261 312.871 153.028 312.427 161.537C312.026 169.252 310.144 183.649 308.581 194.796C309.422 194.454 309.952 193.793 310.564 193.104C312.607 179.337 314.96 161.285 314.286 155.057C313.736 149.983 312.82 144.013 312.018 139.175Z" fill="#4B4B4B"/>
<path d="M310.413 129.474C310.413 129.474 314.571 128.329 315.072 125.325C315.572 122.32 316.072 123.893 316.715 123.679C317.359 123.465 318.359 119.6 317.573 118.098C316.787 116.596 313.055 114.39 311.026 114.706C308.996 115.021 309.783 120.471 309.711 122.075C309.64 123.68 308.971 127.113 310.413 129.474Z" fill="#818181"/>
<path d="M310.413 130.047C310.413 130.047 309.4 125.467 310.413 124.68C311.427 123.893 310.401 122.39 310.413 121.603C310.426 120.816 312.526 118.032 310.861 114.305C308.782 109.654 303.922 107.936 301.35 106.506C298.777 105.074 298.062 103.286 296.061 102.928C294.06 102.57 288.927 100.137 288.742 99.0642C288.556 97.9905 284.34 95.9875 284.411 94.2703C284.483 92.553 283.411 97.4905 287.627 101.926C291.844 106.363 302.564 116.881 303.779 118.956C304.994 121.031 308.711 128.187 308.711 128.187L310.413 130.047Z" fill="#4B4B4B"/>
<path d="M312.008 193.01C310.79 198.557 309.604 204.054 308.913 207.275C309.524 207.281 310.106 207.321 310.717 207.275C311.451 203.739 312.778 197.493 314.131 191.279C313.392 191.825 312.608 192.326 312.008 193.01Z" fill="#343434"/>
<path d="M326.364 149.366C326.364 149.366 325.065 152.401 323.973 155.028C324.46 154.667 324.972 154.331 325.502 154.014C326.639 151.245 327.435 149.366 327.435 149.366H326.364V149.366Z" fill="#343434"/>
<path d="M323.505 156.165C322.362 158.955 317.288 171.62 316.073 175.413C315.57 176.98 313.758 185.045 312.009 193.011C312.609 192.327 313.392 191.825 314.131 191.28C315.664 184.24 317.229 177.24 318.002 174.268C319.213 169.613 323.113 159.837 325.503 154.015C324.972 154.332 324.46 154.667 323.974 155.029C323.811 155.42 323.654 155.803 323.505 156.165Z" fill="#4B4B4B"/>
<path d="M327.436 149.366C327.436 149.366 337.255 134.021 349.02 131.908C360.169 129.904 359.311 130.119 359.454 129.475C359.598 128.83 355.023 125.468 351.45 126.04C347.876 126.613 343.875 126.188 341.158 125.971C338.442 125.754 335.441 128.329 333.869 129.475C332.296 130.619 329.795 130.691 327.436 131.335C325.078 131.979 321.576 133.196 321.647 135.843C321.719 138.49 316.611 149.366 326.365 149.366C327.436 149.366 327.436 149.366 327.436 149.366Z" fill="#4B4B4B"/>
<path d="M341.575 165.756C341.575 165.756 338.37 163.212 336.834 163.498C335.298 163.784 333.475 164.393 332.76 164.322C332.046 164.25 329.401 164.495 328.615 165.106C327.829 165.717 326.09 166.779 325.673 168.305C325.256 169.831 329.258 166.933 331.081 166.826C332.903 166.718 341.575 165.756 341.575 165.756Z" fill="#818181"/>
<path d="M310.885 207.27C311.393 207.228 311.876 207.26 312.383 207.164C313.282 203.813 314.641 198.77 315.477 195.781C315.559 195.487 315.676 195.143 315.824 194.758C315.142 195.383 314.521 196.067 313.825 196.677C312.68 200.351 311.579 204.532 310.885 207.27Z" fill="#343434"/>
<path d="M326.628 172.823C326.628 172.823 326.142 173.578 325.371 174.797C325.196 175.831 324.946 176.865 324.648 177.9C326.162 175.267 327.246 173.441 327.246 173.441L326.628 172.823Z" fill="#343434"/>
<path d="M316.049 190.629C315.358 192.049 314.582 194.253 313.825 196.678C314.521 196.067 315.142 195.383 315.824 194.758C317.292 190.919 321.755 182.932 324.648 177.9C324.946 176.865 325.196 175.831 325.371 174.797C323.043 178.477 318.107 186.4 316.049 190.629Z" fill="#4B4B4B"/>
<path d="M342.635 166.3C342.635 166.3 332.677 167.875 330.819 169.64C328.961 171.405 327.247 173.44 327.247 173.44C327.247 173.44 323.481 170.118 325.673 168.305C327.865 166.491 330.486 166.729 331.105 166.3C331.724 165.871 336.536 164.775 338.252 165.204C339.967 165.633 341.729 165.441 342.635 166.3Z" fill="#4B4B4B"/>
<path d="M228.946 200.387H103.471L87.6428 162.727C87.6428 162.727 103.138 160.261 110.27 159.547C118.96 158.68 200.957 158.389 213.104 158.759C223.451 159.075 248.701 162.8 248.701 162.8L228.946 200.387Z" fill="#5C5C5C"/>
<path d="M110.719 173.987C110.719 173.987 134.322 187.622 152.757 189.515C171.192 191.408 225.871 191.816 225.871 191.816V197.14H115.976C115.976 197.14 114.041 177.857 110.719 173.987Z" fill="#424242"/>
<path d="M228.81 200.387H112.889V195.193C112.889 195.193 152.953 193.624 167.8 193.931C182.647 194.238 228.81 195.193 228.81 195.193V200.387Z" fill="#707070"/>
<path d="M193.807 196.121C195.726 195.969 200.845 194.867 204.574 195.034C204.025 194.755 203.494 194.479 203.057 194.27C199.863 193.128 196.672 194.059 193.807 196.121Z" fill="#808080"/>
<path d="M194.232 180.662C194.402 182.727 194.723 190.652 194.047 191.622C193.907 191.821 193.735 192.105 193.56 192.434C195.888 189.977 195.981 184.732 194.232 180.662Z" fill="#808080"/>
<path d="M227.136 176.568C226.981 176.428 226.777 176.388 226.502 176.48C224.006 177.322 197.424 175.849 196.25 175.428C195.073 175.007 193.312 175.428 193.312 175.428C192.724 177.741 194.047 179.214 194.192 180.265C194.205 180.348 194.218 180.486 194.232 180.662C195.981 184.731 195.889 189.977 193.56 192.434C192.814 193.835 192.003 196.056 193.312 196.135C193.436 196.142 193.606 196.136 193.807 196.121C196.672 194.059 199.863 193.128 203.057 194.27C203.493 194.479 204.025 194.755 204.574 195.034C205.476 195.073 206.296 195.187 206.969 195.407C208.241 195.823 209.957 196.117 211.844 196.309C216.642 196.052 221.566 194.743 226.22 195.307C223.318 193.144 224.762 186.386 224.978 184.366C225.198 182.315 227.136 176.568 227.136 176.568Z" fill="#8F8F8F"/>
<path d="M226.221 195.307C221.566 194.743 216.642 196.052 211.845 196.309C218.534 196.991 227.385 196.391 226.355 195.407C226.307 195.376 226.265 195.341 226.221 195.307Z" fill="#808080"/>
<path d="M225.913 188.467C226.044 185.659 228.382 177.694 227.136 176.568C227.136 176.568 225.198 182.315 224.979 184.366C224.758 186.416 223.27 193.357 226.355 195.407C225.033 194.145 225.767 191.622 225.913 188.467Z" fill="#808080"/>
<path d="M143.338 195.663C141.648 195.491 137.15 194.334 133.861 194.461C134.349 194.189 134.821 193.918 135.209 193.714C138.036 192.606 140.838 193.57 143.338 195.663Z" fill="#A8A8A8"/>
<path d="M143.149 180.202C142.975 182.264 142.597 190.186 143.181 191.162C143.302 191.362 143.45 191.648 143.6 191.979C141.577 189.497 141.559 184.252 143.149 180.202Z" fill="#A8A8A8"/>
<path d="M114.198 175.758C114.336 175.619 114.517 175.581 114.757 175.676C116.947 176.544 140.392 175.354 141.433 174.946C142.474 174.538 144.022 174.977 144.022 174.977C144.513 177.297 143.329 178.755 143.188 179.805C143.176 179.887 143.163 180.025 143.147 180.202C141.557 184.252 141.576 189.498 143.598 191.979C144.239 193.388 144.927 195.618 143.773 195.682C143.662 195.689 143.512 195.68 143.335 195.663C140.836 193.571 138.034 192.606 135.206 193.715C134.819 193.918 134.347 194.189 133.859 194.462C133.064 194.492 132.34 194.597 131.743 194.809C130.618 195.212 129.102 195.489 127.436 195.66C123.211 195.352 118.887 193.99 114.778 194.505C117.363 192.373 116.171 185.599 116.004 183.577C115.837 181.524 114.198 175.758 114.198 175.758Z" fill="#C7C7C7"/>
<path d="M114.781 194.505C118.889 193.99 123.213 195.352 127.438 195.66C121.535 196.27 113.741 195.576 114.661 194.604C114.703 194.572 114.74 194.537 114.781 194.505Z" fill="#A8A8A8"/>
<path d="M115.133 187.669C115.052 184.86 113.087 176.87 114.199 175.758C114.199 175.758 115.838 181.524 116.006 183.578C116.176 185.631 117.404 192.587 114.661 194.604C115.841 193.356 115.224 190.825 115.133 187.669Z" fill="#A8A8A8"/>
<path d="M115.471 195.101C115.471 195.101 116.607 187.781 115.471 182.891C114.756 179.817 109.982 170.953 103.213 166.749C96.4441 162.544 88.8105 161.283 83.7695 163.964C78.729 166.645 80.6012 169.327 80.6012 169.327C80.6012 169.327 96.393 169.397 101.917 174.69C107.678 180.21 111.567 192.013 111.423 195.102H115.471V195.101Z" fill="#707070"/>
<path d="M226.23 195.101C226.23 195.101 225.093 187.781 226.23 182.891C226.944 179.817 231.718 170.953 238.488 166.749C245.256 162.544 252.89 161.283 257.93 163.964C262.971 166.645 261.099 169.327 261.099 169.327C261.099 169.327 245.307 169.397 239.783 174.69C234.022 180.21 230.133 192.013 230.278 195.102H226.23V195.101Z" fill="#707070"/>
<path d="M229.811 208.975H111.423V216.287H229.811V208.975Z" fill="#424242"/>
<path d="M229.811 200.387H111.423V209.739H229.811V200.387Z" fill="#393939"/>
<path d="M228.363 200.387H113.335V208.975H228.363V200.387Z" fill="#565656"/>
<path d="M80.6013 169.327C80.6013 169.327 86.5062 182.733 89.0989 189.83C91.691 196.928 93.9959 207.861 94.2837 209.572C94.572 211.28 94.5043 218.66 111.567 216.485C113.196 216.277 112.863 191.653 112.863 191.653C112.863 191.653 113.804 176.658 99.6125 170.115C85.9306 163.806 81.7535 168.065 80.6013 169.327Z" fill="#565656"/>
<path d="M261.099 169.327C261.099 169.327 255.194 182.733 252.602 189.83C250.01 196.928 247.705 207.861 247.417 209.572C247.129 211.28 247.197 218.66 230.134 216.485C228.505 216.277 228.838 191.653 228.838 191.653C228.838 191.653 227.896 176.658 242.088 170.115C255.77 163.806 259.947 168.065 261.099 169.327Z" fill="#565656"/>
<path d="M115.976 216.287H113.335V227.02H115.976V216.287Z" fill="#5C5C5C"/>
<path d="M228.457 216.287H225.816V227.02H228.457V216.287Z" fill="#5C5C5C"/>
<path opacity="0.2" d="M170.098 229.588C201.447 229.588 226.86 228.552 226.86 227.275C226.86 225.997 201.447 224.962 170.098 224.962C138.749 224.962 113.335 225.997 113.335 227.275C113.335 228.552 138.749 229.588 170.098 229.588Z" fill="#5C5C5C"/>
<path d="M100.619 136.239L102.187 134.646V79.7369L100.619 78.1436V136.239Z" fill="#B5B5B5"/>
<path opacity="0.1" d="M145.017 139.01H104.739L100.797 135.863L100.8 78.144L142.129 78.1274L145.017 80.9496V139.01Z" fill="#5C5C5C"/>
<path d="M142.89 78.144H100.619V136.24H142.89V78.144Z" fill="#D5D5D5"/>
<path d="M141.071 79.7373H102.227V134.646H141.071V79.7373Z" fill="#ECECEC"/>
<path d="M102.545 79.7373H102.068V134.646H102.545V79.7373Z" fill="#A0A0A0"/>
<g opacity="0.6">
<path opacity="0.7" d="M141.153 79.7373H140.836V134.646H141.153V79.7373Z" fill="#A0A0A0"/>
</g>
<path d="M141.07 79.7373H102.545V80.2132H141.07V79.7373Z" fill="#A0A0A0"/>
<path d="M136.417 126.315H107.524V90.0521H136.417V126.315Z" fill="#D1CDC1"/>
<path d="M142.889 136.24L141.079 134.646V79.7373L142.889 78.144V136.24Z" fill="#EAEAEA"/>
<path d="M102.187 134.646L100.619 136.229V78.144L102.068 79.7373L102.187 134.646Z" fill="#BCBCBC"/>
<path opacity="0.7" d="M141.07 134.412H102.545V134.646H141.07V134.412Z" fill="#A0A0A0"/>
<path d="M121.649 98.7505C116.995 98.7505 113.223 102.527 113.223 107.187C113.223 111.846 116.995 115.623 121.649 115.623C126.303 115.623 130.075 111.846 130.075 107.187C130.075 102.527 126.302 98.7505 121.649 98.7505ZM121.649 111.607C119.211 111.607 117.234 109.628 117.234 107.187C117.234 104.746 119.211 102.766 121.649 102.766C124.087 102.766 126.064 104.745 126.064 107.187C126.064 109.629 124.087 111.607 121.649 111.607Z" fill="#DEDEDE"/>
<path d="M188.743 134.857L190.311 133.264V78.3549L188.743 76.7621V134.857Z" fill="#B5B5B5"/>
<path opacity="0.1" d="M233.144 137.628H192.866L188.924 134.481L188.927 76.7621L230.255 76.7455L233.144 79.5676V137.628Z" fill="#5C5C5C"/>
<path d="M231.013 76.7621H188.743V134.858H231.013V76.7621Z" fill="#D5D5D5"/>
<path d="M229.195 78.3553H190.351V133.264H229.195V78.3553Z" fill="#ECECEC"/>
<path d="M190.669 78.3553H190.192V133.264H190.669V78.3553Z" fill="#A0A0A0"/>
<g opacity="0.6">
<path opacity="0.7" d="M229.277 78.3553H228.96V133.264H229.277V78.3553Z" fill="#A0A0A0"/>
</g>
<path d="M229.195 78.3553H190.669V78.8312H229.195V78.3553Z" fill="#A0A0A0"/>
<path d="M224.541 124.933H195.648V88.6702H224.541V124.933Z" fill="#D1CDC1"/>
<path d="M231.014 134.858L229.203 133.265V78.3554L231.014 76.7621V134.858Z" fill="#EAEAEA"/>
<path d="M190.311 133.265L188.743 134.847V76.7621L190.192 78.3554L190.311 133.265Z" fill="#BCBCBC"/>
<path opacity="0.7" d="M229.195 133.031H190.669V133.264H229.195V133.031Z" fill="#A0A0A0"/>
<path d="M214.066 98.3579H205.479L201.185 105.804L205.479 113.251H214.066L218.361 105.804L214.066 98.3579ZM212.201 110.016H207.344L204.916 105.805L207.344 101.594H212.201L214.631 105.805L212.201 110.016Z" fill="#DEDEDE"/>
<path d="M255.631 15.1851H254.971V48.1143C255.191 47.9853 255.412 47.8558 255.631 47.7267V15.1851Z" fill="#797979"/>
<path d="M254.971 48.1142V84.8671H255.631V47.5475C255.411 47.7367 255.191 47.9255 254.971 48.1142Z" fill="#6A6A6A"/>
<path d="M258.711 87.7665L255.631 84.1698H254.971L252.039 87.8393V87.9101H258.711V87.7665Z" fill="#6A6A6A"/>
<path d="M258.711 87.9102H252.039V97.6753H258.711V87.9102Z" fill="#797979"/>
<path d="M273.629 108.466L258.674 97.6753H257.63H256.627H255.412H255.338H252.076L237.119 108.466C233.898 110.688 234.739 111.346 235.213 111.622L255.338 111.677H255.374H255.412L267.909 111.643L274.26 111.625L275.536 111.622C276.01 111.346 277.017 110.688 273.629 108.466Z" fill="#888888"/>
<path d="M256.627 97.6753L267.407 111.677L273.341 111.628L257.63 97.6753H256.627Z" fill="#9B9B9B"/>
<path d="M257.551 87.9102H256.768V97.6753H257.551V87.9102Z" fill="#9B9B9B"/>
<path d="M165.371 31.715H164.89V55.2566C165.05 55.1642 165.211 55.0718 165.371 54.9795V31.715Z" fill="#797979"/>
<path d="M164.89 55.2565V81.532H165.371V54.8514C165.211 54.987 165.05 55.122 164.89 55.2565Z" fill="#6A6A6A"/>
<path d="M167.619 83.6052L165.372 81.0341H164.89L162.749 83.6574V83.7081H167.619V83.6052Z" fill="#6A6A6A"/>
<path d="M167.619 83.7081H162.749V90.6892H167.619V83.7081Z" fill="#797979"/>
<path d="M178.508 98.4037L167.592 90.6892H166.831H166.099H165.212H165.157H162.776L151.859 98.4037C149.509 99.992 150.122 100.463 150.468 100.66L165.157 100.699H165.184H165.211L174.333 100.675L178.968 100.663L179.9 100.66C180.246 100.463 180.981 99.992 178.508 98.4037Z" fill="#888888"/>
<path d="M166.099 90.6892L173.967 100.7L178.297 100.664L166.831 90.6892H166.099Z" fill="#9B9B9B"/>
<path d="M166.773 83.7081H166.201V90.6892H166.773V83.7081Z" fill="#9B9B9B"/>
<path d="M76.6654 164.027H34.5251V181.944H76.6654V164.027Z" fill="#606060"/>
<path opacity="0.3" d="M55.2687 169.742C56.1692 169.742 56.8992 169.011 56.8992 168.109C56.8992 167.208 56.1692 166.477 55.2687 166.477C54.3682 166.477 53.6382 167.208 53.6382 168.109C53.6382 169.011 54.3682 169.742 55.2687 169.742Z" fill="#2F2F2F"/>
<path d="M76.6654 182.608H34.5251V200.205H76.6654V182.608Z" fill="#3C3C3C"/>
<path opacity="0.3" d="M55.2687 187.677C56.1692 187.677 56.8992 186.946 56.8992 186.044C56.8992 185.143 56.1692 184.412 55.2687 184.412C54.3682 184.412 53.6382 185.143 53.6382 186.044C53.6382 186.946 54.3682 187.677 55.2687 187.677Z" fill="#0C0C0C"/>
<path d="M55.5956 187.337C56.4961 187.337 57.2261 186.607 57.2261 185.705C57.2261 184.803 56.4961 184.073 55.5956 184.073C54.6951 184.073 53.9651 184.803 53.9651 185.705C53.9651 186.607 54.6951 187.337 55.5956 187.337Z" fill="#1E1E1E"/>
<path d="M55.595 169.371C56.4955 169.371 57.2255 168.64 57.2255 167.739C57.2255 166.837 56.4955 166.106 55.595 166.106C54.6945 166.106 53.9645 166.837 53.9645 167.739C53.9645 168.64 54.6945 169.371 55.595 169.371Z" fill="#2F2F2F"/>
<path d="M34.4284 163.384H33.1599V201.121H34.4284V163.384Z" fill="#4F4F4F"/>
<path d="M77.9144 163.335H76.8685V200.415H77.9144V163.335Z" fill="#4F4F4F"/>
<path d="M77.9144 200.413H33.1599V202.327H77.9144V200.413Z" fill="#4A4A4A"/>
<path d="M76.6654 181.944H34.5251V182.608H76.6654V181.944Z" fill="#0C0C0C"/>
<path d="M76.6654 200.116H34.5251V200.415H76.6654V200.116Z" fill="#0C0C0C"/>
<path d="M76.6654 163.642H34.5251V164.027H76.6654V163.642Z" fill="#0C0C0C"/>
<path d="M76.868 163.642H76.5291V200.415H76.868V163.642Z" fill="#232323"/>
<path d="M34.5999 163.594H34.3933V200.415H34.5999V163.594Z" fill="#232323"/>
<path d="M78.4218 162.383H33.1599V163.633H78.4218V162.383Z" fill="#717171"/>
<path d="M78.4209 162.383H33.4127L34.5393 161.328H77.016L78.4209 162.383Z" fill="#A8A8A8"/>
<path opacity="0.2" d="M74.7366 231.297L37.0081 231.297L40.4897 219.285H69.0829L74.7366 231.297Z" fill="#5C5C5C"/>
<path d="M37.7285 210.004L34.9172 230.448C34.9172 230.448 35.0341 230.972 36.1461 231.206C37.2582 231.441 37.5691 231.176 37.8032 230.884C37.9943 230.645 41.5601 211.798 42.8688 204.858L37.7285 210.004Z" fill="#717171"/>
<path d="M43.3451 202.327H38.7839L37.7285 210.004L42.8688 204.858C43.1641 203.289 43.3451 202.327 43.3451 202.327Z" fill="#616161"/>
<path d="M69.1547 202.327L71.6531 220.494C71.6531 220.494 71.5774 220.832 70.8594 220.983C70.1409 221.135 69.9398 220.963 69.7884 220.774C69.6375 220.585 66.209 202.327 66.209 202.327H69.1547Z" fill="#555555"/>
<path d="M72.7987 202.327H68.2375C68.2375 202.327 68.4516 203.469 68.7961 205.293L73.9103 210.414L72.7987 202.327Z" fill="#616161"/>
<path d="M73.9108 210.414L68.7966 205.293C70.1654 212.555 73.5924 230.649 73.7794 230.884C74.0136 231.177 74.3249 231.441 75.437 231.207C76.5486 230.973 76.6659 230.45 76.6659 230.45L73.9108 210.414Z" fill="#717171"/>
<path d="M62.2354 119.159C60.2058 119.048 58.0002 118.969 55.8452 118.969C48.7155 118.969 40.413 119.835 40.413 119.835V142.056C40.413 142.056 51.4415 142.373 55.8452 142.428C57.4612 142.448 59.7099 142.411 61.9687 142.353C64.6641 135.028 63.5967 126.883 62.2354 119.159Z" fill="#B3B3B3"/>
<path d="M70.6633 119.835C70.6633 119.835 66.9189 119.413 62.2334 119.159C63.5952 126.883 64.6626 135.028 61.9667 142.352C66.2977 142.241 70.6638 142.055 70.6638 142.055V119.835H70.6633Z" fill="#A7A7A7"/>
<path d="M70.6633 142.055C70.6633 141.94 63.8911 141.848 55.5369 141.848C47.1828 141.848 40.4105 141.941 40.4105 142.055C40.4105 142.17 47.1828 142.634 55.5369 142.634C63.8911 142.634 70.6633 142.17 70.6633 142.055Z" fill="#767676"/>
<path d="M56.9633 141.848H55.0325V144.165H56.9633V141.848Z" fill="#9E9E9E"/>
<path d="M56.9899 145.871C56.2945 145.637 56.2493 144.321 56.2468 143.339H55.9986L53.5724 143.338C53.5724 143.338 54.1505 144.704 53.5724 145.241C52.9938 145.779 48.6533 148.842 47.5382 150.041C46.4216 151.241 45.1416 155.379 46.4632 157.779C47.7859 160.178 49.7283 161.048 50.5957 161.503C51.3422 161.894 54.9908 161.888 55.9981 161.878C56.8289 161.887 59.4602 161.892 60.7724 161.673C65.1851 156.724 62.2364 149.691 56.9899 145.871Z" fill="#C3C3C3"/>
<path d="M64.4581 150.041C63.3415 148.842 59.0025 145.779 58.4239 145.241C57.8458 144.704 58.4239 143.338 58.4239 143.338L56.2463 143.339C56.2493 144.321 56.2945 145.637 56.9894 145.871C62.2364 149.691 65.1851 156.724 60.7724 161.673C61.0496 161.627 61.2692 161.571 61.3991 161.503C62.2665 161.048 64.2094 160.178 65.5316 157.779C66.8547 155.379 65.5742 151.241 64.4581 150.041Z" fill="#B4B4B4"/>
<path opacity="0.2" d="M272.914 231.225C282.999 231.225 291.175 230.788 291.175 230.249C291.175 229.71 282.999 229.273 272.914 229.273C262.829 229.273 254.653 229.71 254.653 230.249C254.653 230.788 262.829 231.225 272.914 231.225Z" fill="#5C5C5C"/>
<path d="M264.551 194.798H259.482L258.728 200.346L264.031 197.263L264.551 194.798Z" fill="#8E8E8E"/>
<path d="M286.458 194.798H281.389L282.033 197.847L287.238 200.541L286.458 194.798Z" fill="#8E8E8E"/>
<path d="M261.543 201.258V202.449H264.299C264.627 202.077 264.928 201.708 265.097 201.258H261.543Z" fill="#8E8E8E"/>
<path d="M266.897 193.662H255.554V196.176H266.897V193.662Z" fill="#989898"/>
<path d="M287.952 193.662H266.897V196.176H287.952V193.662Z" fill="#A4A4A4"/>
<path d="M294.834 193.662H287.952V196.176H294.834C295.594 196.176 296.21 195.613 296.21 194.919C296.21 194.225 295.594 193.662 294.834 193.662Z" fill="#8E8E8E"/>
<path d="M251.847 193.662C251.088 193.662 250.472 194.225 250.472 194.919C250.472 195.613 251.088 196.176 251.847 196.176H255.554V193.662H251.847Z" fill="#8E8E8E"/>
<path d="M285.138 201.258H280.921L281.529 202.449H285.138V201.258Z" fill="#8E8E8E"/>
<path d="M258.728 200.346L254.666 230.249H257.074L264.031 197.263L258.728 200.346Z" fill="#A4A4A4"/>
<path d="M291.274 230.249L287.238 200.541L282.033 197.847L288.866 230.249H291.274Z" fill="#A4A4A4"/>
<path d="M280.921 201.258H265.097L264.299 202.449H281.529L280.921 201.258Z" fill="#A4A4A4"/>
<path d="M283.513 189.104H262.387C262.232 189.104 262.081 189.111 261.933 189.123C262.483 189.633 262.831 190.4 262.831 191.258C262.831 192.115 262.483 192.882 261.933 193.393C262.081 193.405 262.232 193.412 262.387 193.412H283.513C284.989 193.412 286.351 192.855 286.351 192.169V190.346C286.351 189.66 284.989 189.104 283.513 189.104Z" fill="white"/>
<path d="M283.597 188.921H262.471C262.217 188.921 261.971 188.938 261.736 188.966C261.857 189.07 261.969 189.184 262.073 189.305C262.203 189.294 262.335 189.288 262.471 189.288H283.597C284.931 189.288 286.103 189.783 286.103 190.348V192.17C286.103 192.735 284.931 193.229 283.597 193.229H262.471C262.329 193.229 262.19 193.223 262.055 193.212C261.95 193.332 261.836 193.445 261.713 193.548C261.955 193.579 262.208 193.596 262.471 193.596H283.597C285.317 193.596 286.77 192.943 286.77 192.17V190.348C286.77 189.574 285.317 188.921 283.597 188.921Z" fill="#A6A6A6"/>
<path opacity="0.6" d="M274.738 190.686H276.575L276.357 192.219L274.738 190.686Z" fill="#D0D0D0"/>
<path d="M274.738 190.686H276.575V191.832L274.738 190.686Z" fill="#C9C9C9"/>
<path opacity="0.6" d="M262.111 189.304L264.336 189.686C264.336 189.686 284.02 189.589 284.741 190.252C285.261 190.731 285.405 191.791 285.081 192.581C284.957 192.884 284.308 192.976 284.146 193.205C284.146 193.205 285.363 193.074 285.923 192.639C286.299 192.348 286.127 191.951 286.134 191.372C286.137 190.891 286.279 190.441 286.031 190.068C285.783 189.694 285.117 189.375 283.869 189.292L262.111 189.304Z" fill="#D0D0D0"/>
<path d="M284.065 184.383H264.226C264.08 184.383 263.939 184.391 263.8 184.402C264.316 184.913 264.643 185.68 264.643 186.538C264.643 187.395 264.316 188.162 263.8 188.673C263.938 188.684 264.08 188.692 264.226 188.692H284.065C285.451 188.692 286.731 188.135 286.731 187.448V185.626C286.731 184.94 285.451 184.383 284.065 184.383Z" fill="white"/>
<path d="M284.144 184.2H264.305C264.067 184.2 263.835 184.217 263.615 184.245C263.729 184.35 263.834 184.464 263.931 184.584C264.053 184.573 264.178 184.567 264.305 184.567H284.144C285.397 184.567 286.497 185.062 286.497 185.627V187.449C286.497 188.014 285.397 188.508 284.144 188.508H264.305C264.171 188.508 264.042 188.502 263.915 188.491C263.816 188.611 263.709 188.724 263.593 188.828C263.821 188.858 264.059 188.875 264.305 188.875H284.144C285.76 188.875 287.124 188.222 287.124 187.449V185.627C287.124 184.854 285.76 184.2 284.144 184.2Z" fill="#878787"/>
<path opacity="0.6" d="M275.824 185.965H277.549L277.344 187.499L275.824 185.965Z" fill="#D0D0D0"/>
<path d="M275.824 185.965H277.549V187.111L275.824 185.965Z" fill="#C9C9C9"/>
<path opacity="0.6" d="M263.967 184.584L266.056 184.966C266.056 184.966 284.541 184.869 285.218 185.532C285.707 186.011 285.842 187.071 285.537 187.86C285.421 188.164 284.811 188.256 284.659 188.485C284.659 188.485 285.802 188.354 286.328 187.919C286.68 187.627 286.52 187.23 286.526 186.652C286.529 186.171 286.662 185.721 286.429 185.347C286.197 184.973 285.571 184.655 284.4 184.572L263.967 184.584Z" fill="#D0D0D0"/>
<path d="M278.21 172.356C277.943 171.023 276.768 170.02 275.358 170.02C273.867 170.02 272.64 171.143 272.471 172.591C274.441 173.406 276.4 173.003 278.21 172.356Z" fill="white"/>
<path d="M272.472 172.591C272.459 172.703 272.45 172.816 272.45 172.931V181.93C272.45 183.538 278.267 183.538 278.267 181.93V172.931C278.267 172.734 278.247 172.542 278.21 172.356C276.4 173.003 274.441 173.406 272.472 172.591Z" fill="#F2F2F2"/>
<path d="M275.605 168.062H275.111V170.019H275.605V168.062Z" fill="#878787"/>
<path d="M277.989 182.375H272.729C272.274 182.375 271.905 182.725 271.864 183.169H278.852C278.812 182.725 278.442 182.375 277.989 182.375Z" fill="#2D2D2D"/>
<path d="M271.864 183.169C271.862 183.196 271.856 183.222 271.856 183.249C271.856 183.731 272.247 184.122 272.728 184.122H277.988C278.469 184.122 278.86 183.731 278.86 183.249C278.86 183.221 278.855 183.196 278.852 183.169H271.864Z" fill="#252525"/>
</svg>

