<svg width="37" height="38" viewBox="0 0 37 38" fill="none" xmlns="http://www.w3.org/2000/svg">
<g clip-path="url(#clip0)">
<path d="M33.0786 34.3192L28.6242 33.3388L27.2437 37.6972C27.1444 38.0106 26.72 38.0565 26.556 37.7716L21.0454 28.199C23.7598 27.6108 26.175 26.2169 28.0295 24.2795L33.4873 33.7617C33.6511 34.0461 33.3992 34.3898 33.0786 34.3192V34.3192Z" fill="#FD646F"/>
<path d="M33.0787 34.3193L28.9614 33.413C28.7705 33.371 28.579 33.4816 28.52 33.6679L27.2437 37.6972C27.1444 38.0106 26.7201 38.0565 26.5561 37.7716L21.8352 29.5702L21.0455 28.199C23.7599 27.6108 26.1751 26.2169 28.0296 24.2795L28.8132 25.6401L33.4875 33.7617C33.6511 34.0463 33.3992 34.3898 33.0787 34.3193V34.3193Z" fill="#FD646F"/>
<path d="M33.0787 34.3189L28.9617 33.4128C28.7705 33.3712 28.5793 33.4816 28.5204 33.6675L28.9635 32.2905C29.0233 32.1047 29.2147 31.9951 29.4052 32.0374L32.9479 32.8249L33.4875 33.7619C33.6515 34.0461 33.3991 34.3899 33.0787 34.3189Z" fill="#FC4755"/>
<path d="M16.0415 28.0842L10.4438 37.8066C10.2798 38.0914 9.85539 38.0455 9.75609 37.7321L8.47973 33.7028C8.42071 33.5164 8.22922 33.4059 8.03834 33.4479L3.92111 34.354C3.60055 34.4246 3.34868 34.081 3.51244 33.7966L8.71861 24.7517C10.6622 26.5944 13.284 27.6301 16.0415 28.0842Z" fill="#FD646F"/>
<path d="M9.4554 26.0971L4.81622 34.1566L3.92133 34.3538C3.60077 34.4245 3.34882 34.0808 3.51258 33.7963L7.9441 26.0971L9.14247 24.0098C9.46515 24.3152 9.80219 24.6056 10.1536 24.8784L9.4554 26.0971Z" fill="#FC4755"/>
<path d="M10.9898 36.8573L10.4434 37.8064C10.2795 38.0913 9.85552 38.046 9.75577 37.7323L8.47941 33.703C8.42047 33.5163 8.22928 33.406 8.03809 33.4476L9.44971 33.1371C9.6406 33.095 9.83202 33.2056 9.89104 33.3919L10.9898 36.8573Z" fill="#FC4755"/>
<path d="M8.84459 24.5217L12.5262 26.182L16.0415 28.0843L15.0989 29.7203C12.4706 29.1868 10.032 27.9634 8.01658 26.1617C7.99239 26.1404 7.96821 26.1192 7.94403 26.0972L8.84459 24.5217Z" fill="#FC4755"/>
<path d="M28.8131 25.6401L28.0295 24.2795L23.8827 26.1098L21.0454 28.199L21.3643 28.7527L22.1474 30.1128L26.556 37.7715C26.72 38.0564 27.1444 38.0105 27.2437 37.6971L27.5244 36.8108L23.1425 29.1783C25.2638 28.4401 27.1949 27.2392 28.8131 25.6401V25.6401Z" fill="#FC4755"/>
<path d="M32.2149 14.7525C32.2149 18.4499 30.7602 21.8077 28.3926 24.2795C26.5381 26.2169 24.1229 27.6108 21.4085 28.199C20.4707 28.4021 19.4981 28.5089 18.4999 28.5089C17.7381 28.5089 16.9915 28.4467 16.2638 28.327C13.6476 27.8965 11.28 26.7232 9.38473 25.0299C9.28196 24.9389 9.18145 24.8465 9.0817 24.7517C8.72804 24.4167 8.39251 24.0627 8.07512 23.6921C7.77134 23.3359 7.48569 22.9637 7.21893 22.5772C6.4179 21.4182 5.78992 20.1289 5.37202 18.7478C4.9904 17.4836 4.78485 16.1427 4.78485 14.7526C4.78485 7.15534 10.9256 0.996094 18.4999 0.996094C19.885 0.996094 21.2226 1.20225 22.4823 1.58583C23.86 2.0035 25.1446 2.63337 26.3008 3.43758C26.6862 3.70517 27.0573 3.99165 27.4117 4.2971C27.8863 4.70336 28.3321 5.14226 28.747 5.60913C30.9045 8.03995 32.2149 11.2431 32.2149 14.7525Z" fill="#94620C"/>
<path d="M18.4999 24.6055C23.9252 24.6055 28.3232 20.1942 28.3232 14.7525C28.3232 9.31078 23.9252 4.89941 18.4999 4.89941C13.0746 4.89941 8.67651 9.31078 8.67651 14.7525C8.67651 20.1942 13.0746 24.6055 18.4999 24.6055Z" fill="#C7A706"/>
<path d="M28.3231 14.7525C28.3231 20.194 23.925 24.6054 18.4999 24.6054C13.0748 24.6054 8.67667 20.194 8.67667 14.7525C8.67667 14.3417 8.7016 13.9369 8.75072 13.5398C9.34621 18.4098 13.4844 22.1799 18.4999 22.1799C23.5154 22.1799 27.6535 18.4098 28.249 13.5398C28.2981 13.937 28.3231 14.3417 28.3231 14.7525V14.7525Z" fill="#94620C"/>
<path fill-rule="evenodd" clip-rule="evenodd" d="M18.4999 4.89966C13.0748 4.89966 8.67667 9.31107 8.67667 14.7526C8.67667 20.1941 13.0748 24.6055 18.4999 24.6055C23.925 24.6055 28.3231 20.1941 28.3231 14.7526C28.3231 9.31107 23.925 4.89966 18.4999 4.89966V4.89966ZM18.4999 23.4685C13.708 23.4685 9.8102 19.5588 9.8102 14.7526C9.8102 9.9463 13.708 6.03667 18.4999 6.03667C23.2917 6.03667 27.1895 9.9463 27.1895 14.7526C27.1895 19.5588 23.2917 23.4685 18.4999 23.4685Z" fill="#C78410"/>
<path d="M18.8393 9.30403L20.1887 12.0606C20.2436 12.1729 20.3506 12.2507 20.4743 12.2684L23.507 12.7042C23.8174 12.7488 23.9415 13.1302 23.7168 13.3489L21.5173 15.4907C21.4279 15.5777 21.3873 15.7031 21.4085 15.8259L21.9327 18.8543C21.9862 19.1637 21.6609 19.3996 21.3834 19.2526L18.6768 17.8183C18.5661 17.7597 18.4336 17.7597 18.323 17.8183L15.6163 19.2526C15.3388 19.3997 15.0135 19.1637 15.0671 18.8543L15.5912 15.8259C15.6125 15.7031 15.5718 15.5777 15.4825 15.4907L13.2829 13.3489C13.0582 13.1301 13.1824 12.7488 13.4927 12.7042L16.5254 12.2684C16.6491 12.2507 16.756 12.1729 16.8111 12.0606L18.1605 9.30403C18.2987 9.0217 18.701 9.0217 18.8393 9.30403V9.30403Z" fill="#94620C"/>
</g>
<defs>
<clipPath id="clip0">
<rect width="37" height="37" fill="white" transform="translate(0 0.996094)"/>
</clipPath>
</defs>
</svg>

