<svg width="37" height="38" viewBox="0 0 37 38" fill="none" xmlns="http://www.w3.org/2000/svg">
<g clip-path="url(#clip0)">
<path d="M33.0786 34.3211L28.6242 33.3408L27.2437 37.6991C27.1444 38.0125 26.72 38.0585 26.556 37.7736L21.0454 28.201C23.7598 27.6128 26.175 26.2189 28.0295 24.2815L33.4873 33.7637C33.6511 34.0481 33.3992 34.3917 33.0786 34.3211V34.3211Z" fill="#FD646F"/>
<path d="M33.0787 34.3212L28.9614 33.415C28.7705 33.373 28.579 33.4835 28.52 33.6699L27.2437 37.6991C27.1444 38.0125 26.7201 38.0585 26.5561 37.7736L21.8352 29.5722L21.0455 28.201C23.7599 27.6128 26.1751 26.2189 28.0296 24.2815L28.8132 25.642L33.4875 33.7637C33.6511 34.0483 33.3992 34.3918 33.0787 34.3212V34.3212Z" fill="#FD646F"/>
<path d="M33.0787 34.3208L28.9617 33.4148C28.7705 33.3732 28.5793 33.4835 28.5204 33.6694L28.9635 32.2924C29.0233 32.1067 29.2147 31.997 29.4052 32.0393L32.9479 32.8268L33.4875 33.7639C33.6515 34.048 33.3991 34.3919 33.0787 34.3208Z" fill="#FC4755"/>
<path d="M16.0415 28.0861L10.4438 37.8085C10.2798 38.0934 9.85539 38.0475 9.75609 37.7341L8.47973 33.7047C8.42071 33.5184 8.22922 33.4078 8.03834 33.4498L3.92111 34.356C3.60055 34.4266 3.34868 34.083 3.51244 33.7985L8.71861 24.7537C10.6622 26.5963 13.284 27.6321 16.0415 28.0861Z" fill="#FD646F"/>
<path d="M9.4554 26.0991L4.81622 34.1586L3.92133 34.3558C3.60077 34.4264 3.34882 34.0828 3.51258 33.7983L7.9441 26.0991L9.14247 24.0117C9.46515 24.3172 9.80219 24.6075 10.1536 24.8804L9.4554 26.0991Z" fill="#FC4755"/>
<path d="M10.9898 36.8592L10.4434 37.8084C10.2795 38.0932 9.85552 38.0479 9.75577 37.7343L8.47941 33.705C8.42047 33.5183 8.22928 33.408 8.03809 33.4495L9.44971 33.139C9.6406 33.097 9.83202 33.2076 9.89104 33.3938L10.9898 36.8592Z" fill="#FC4755"/>
<path d="M8.84459 24.5237L12.5262 26.1839L16.0415 28.0862L15.0989 29.7223C12.4706 29.1887 10.032 27.9653 8.01658 26.1636C7.99239 26.1424 7.96821 26.1211 7.94403 26.0991L8.84459 24.5237Z" fill="#FC4755"/>
<path d="M28.8131 25.642L28.0295 24.2815L23.8827 26.1118L21.0454 28.201L21.3643 28.7546L22.1474 30.1147L26.556 37.7735C26.72 38.0584 27.1444 38.0124 27.2437 37.6991L27.5244 36.8128L23.1425 29.1802C25.2638 28.4421 27.1949 27.2412 28.8131 25.642V25.642Z" fill="#FC4755"/>
<path d="M32.2149 14.7545C32.2149 18.4518 30.7602 21.8097 28.3926 24.2815C26.5381 26.2188 24.1229 27.6128 21.4085 28.2009C20.4707 28.404 19.4981 28.5109 18.4999 28.5109C17.7381 28.5109 16.9915 28.4487 16.2638 28.329C13.6476 27.8985 11.28 26.7251 9.38473 25.0318C9.28196 24.9409 9.18145 24.8484 9.0817 24.7537C8.72804 24.4187 8.39251 24.0646 8.07512 23.6941C7.77134 23.3378 7.48569 22.9656 7.21893 22.5791C6.4179 21.4202 5.78992 20.1308 5.37202 18.7498C4.9904 17.4855 4.78485 16.1446 4.78485 14.7545C4.78485 7.1573 10.9256 0.998047 18.4999 0.998047C19.885 0.998047 21.2226 1.2042 22.4823 1.58779C23.86 2.00546 25.1446 2.63532 26.3008 3.43953C26.6862 3.70712 27.0573 3.9936 27.4117 4.29905C27.8863 4.70531 28.3321 5.14421 28.747 5.61108C30.9045 8.04191 32.2149 11.245 32.2149 14.7545Z" fill="#BCBCBC"/>
<path d="M18.4999 24.6075C23.9252 24.6075 28.3232 20.1961 28.3232 14.7544C28.3232 9.31273 23.9252 4.90137 18.4999 4.90137C13.0746 4.90137 8.67651 9.31273 8.67651 14.7544C8.67651 20.1961 13.0746 24.6075 18.4999 24.6075Z" fill="#D6D6D6"/>
<path d="M28.3231 14.7545C28.3231 20.196 23.925 24.6074 18.4999 24.6074C13.0748 24.6074 8.67667 20.196 8.67667 14.7545C8.67667 14.3436 8.7016 13.9389 8.75072 13.5417C9.34621 18.4117 13.4844 22.1818 18.4999 22.1818C23.5154 22.1818 27.6535 18.4117 28.249 13.5417C28.2981 13.9389 28.3231 14.3437 28.3231 14.7545V14.7545Z" fill="#BCBCBC"/>
<path fill-rule="evenodd" clip-rule="evenodd" d="M18.4999 4.90161C13.0748 4.90161 8.67667 9.31303 8.67667 14.7545C8.67667 20.196 13.0748 24.6074 18.4999 24.6074C23.925 24.6074 28.3231 20.196 28.3231 14.7545C28.3231 9.31303 23.925 4.90161 18.4999 4.90161V4.90161ZM18.4999 23.4704C13.708 23.4704 9.8102 19.5608 9.8102 14.7545C9.8102 9.94826 13.708 6.03862 18.4999 6.03862C23.2917 6.03862 27.1895 9.94826 27.1895 14.7545C27.1895 19.5608 23.2917 23.4704 18.4999 23.4704Z" fill="#F0F0F0"/>
<path d="M18.8393 9.30598L20.1887 12.0625C20.2436 12.1748 20.3506 12.2526 20.4743 12.2704L23.507 12.7061C23.8174 12.7507 23.9415 13.1321 23.7168 13.3508L21.5173 15.4927C21.4279 15.5796 21.3873 15.705 21.4085 15.8278L21.9327 18.8562C21.9862 19.1656 21.6609 19.4015 21.3834 19.2546L18.6768 17.8203C18.5661 17.7616 18.4336 17.7616 18.323 17.8203L15.6163 19.2546C15.3388 19.4016 15.0135 19.1657 15.0671 18.8562L15.5912 15.8278C15.6125 15.705 15.5718 15.5796 15.4825 15.4927L13.2829 13.3508C13.0582 13.132 13.1824 12.7507 13.4927 12.7061L16.5254 12.2704C16.6491 12.2526 16.756 12.1748 16.8111 12.0625L18.1605 9.30598C18.2987 9.02366 18.701 9.02366 18.8393 9.30598V9.30598Z" fill="#BCBCBC"/>
</g>
<defs>
<clipPath id="clip0">
<rect width="37" height="37" fill="white" transform="translate(0 0.998047)"/>
</clipPath>
</defs>
</svg>

