<svg width="37" height="37" viewBox="0 0 37 37" fill="none" xmlns="http://www.w3.org/2000/svg">
<path d="M33.0786 33.3231L28.6242 32.3427L27.2437 36.7011C27.1444 37.0145 26.72 37.0604 26.556 36.7755L21.0454 27.2029C23.7598 26.6148 26.175 25.2208 28.0295 23.2834L33.4873 32.7656C33.6511 33.0501 33.3992 33.3937 33.0786 33.3231V33.3231Z" fill="#FD646F"/>
<path d="M33.0787 33.3232L28.9614 32.4169C28.7705 32.3749 28.579 32.4855 28.52 32.6718L27.2437 36.7011C27.1444 37.0145 26.7201 37.0604 26.5561 36.7755L21.8352 28.5741L21.0455 27.2029C23.7599 26.6148 26.1751 25.2208 28.0296 23.2834L28.8132 24.644L33.4875 32.7656C33.6511 33.0502 33.3992 33.3937 33.0787 33.3232V33.3232Z" fill="#FD646F"/>
<path d="M33.0787 33.3228L28.9617 32.4167C28.7705 32.3751 28.5793 32.4855 28.5204 32.6714L28.9635 31.2944C29.0233 31.1086 29.2147 30.999 29.4052 31.0413L32.9479 31.8288L33.4875 32.7658C33.6515 33.05 33.3991 33.3938 33.0787 33.3228Z" fill="#FC4755"/>
<path d="M16.0415 27.0881L10.4438 36.8105C10.2798 37.0954 9.85539 37.0494 9.75609 36.736L8.47973 32.7067C8.42071 32.5203 8.22922 32.4098 8.03834 32.4518L3.92111 33.3579C3.60055 33.4285 3.34868 33.0849 3.51244 32.8005L8.71861 23.7556C10.6622 25.5983 13.284 26.634 16.0415 27.0881Z" fill="#FD646F"/>
<path d="M9.4554 25.101L4.81622 33.1605L3.92133 33.3577C3.60077 33.4284 3.34882 33.0848 3.51258 32.8002L7.9441 25.101L9.14247 23.0137C9.46515 23.3191 9.80219 23.6095 10.1536 23.8823L9.4554 25.101Z" fill="#FC4755"/>
<path d="M10.9898 35.8612L10.4434 36.8103C10.2795 37.0952 9.85552 37.0499 9.75577 36.7362L8.47941 32.7069C8.42047 32.5202 8.22928 32.4099 8.03809 32.4515L9.44971 32.141C9.6406 32.099 9.83202 32.2095 9.89104 32.3958L10.9898 35.8612Z" fill="#FC4755"/>
<path d="M8.84459 23.5256L12.5262 25.1859L16.0415 27.0882L15.0989 28.7243C12.4706 28.1907 10.032 26.9673 8.01658 25.1656C7.99239 25.1443 7.96821 25.1231 7.94403 25.1011L8.84459 23.5256Z" fill="#FC4755"/>
<path d="M28.8131 24.644L28.0295 23.2834L23.8827 25.1137L21.0454 27.2029L21.3643 27.7566L22.1474 29.1167L26.556 36.7754C26.72 37.0603 27.1444 37.0144 27.2437 36.701L27.5244 35.8147L23.1425 28.1822C25.2638 27.444 27.1949 26.2431 28.8131 24.644V24.644Z" fill="#FC4755"/>
<path d="M32.2149 13.7564C32.2149 17.4538 30.7602 20.8116 28.3926 23.2834C26.5381 25.2208 24.1229 26.6147 21.4085 27.2029C20.4707 27.406 19.4981 27.5128 18.4999 27.5128C17.7381 27.5128 16.9915 27.4507 16.2638 27.331C13.6476 26.9004 11.28 25.7271 9.38473 24.0338C9.28196 23.9428 9.18145 23.8504 9.0817 23.7556C8.72804 23.4206 8.39251 23.0666 8.07512 22.696C7.77134 22.3398 7.48569 21.9676 7.21893 21.5811C6.4179 20.4221 5.78992 19.1328 5.37202 17.7518C4.9904 16.4875 4.78485 15.1466 4.78485 13.7565C4.78485 6.15925 10.9256 0 18.4999 0C19.885 0 21.2226 0.206152 22.4823 0.58974C23.86 1.00741 25.1446 1.63728 26.3008 2.44148C26.6862 2.70907 27.0573 2.99555 27.4117 3.301C27.8863 3.70726 28.3321 4.14617 28.747 4.61303C30.9045 7.04386 32.2149 10.247 32.2149 13.7564Z" fill="#FAA515"/>
<path d="M18.4999 23.6094C23.9252 23.6094 28.3232 19.1981 28.3232 13.7564C28.3232 8.31469 23.9252 3.90332 18.4999 3.90332C13.0746 3.90332 8.67651 8.31469 8.67651 13.7564C8.67651 19.1981 13.0746 23.6094 18.4999 23.6094Z" fill="#FAD207"/>
<path d="M28.3231 13.7564C28.3231 19.1979 23.925 23.6093 18.4999 23.6093C13.0748 23.6093 8.67667 19.1979 8.67667 13.7564C8.67667 13.3456 8.7016 12.9408 8.75072 12.5437C9.34621 17.4137 13.4844 21.1838 18.4999 21.1838C23.5154 21.1838 27.6535 17.4137 28.249 12.5437C28.2981 12.9409 28.3231 13.3456 28.3231 13.7564V13.7564Z" fill="#FAA515"/>
<path fill-rule="evenodd" clip-rule="evenodd" d="M18.4999 3.90356C13.0748 3.90356 8.67667 8.31498 8.67667 13.7565C8.67667 19.198 13.0748 23.6094 18.4999 23.6094C23.925 23.6094 28.3231 19.198 28.3231 13.7565C28.3231 8.31498 23.925 3.90356 18.4999 3.90356V3.90356ZM18.4999 22.4724C13.708 22.4724 9.8102 18.5627 9.8102 13.7565C9.8102 8.95021 13.708 5.04058 18.4999 5.04058C23.2917 5.04058 27.1895 8.95021 27.1895 13.7565C27.1895 18.5627 23.2917 22.4724 18.4999 22.4724Z" fill="#FAF063"/>
<path d="M18.8393 8.30794L20.1887 11.0645C20.2436 11.1768 20.3506 11.2546 20.4743 11.2724L23.507 11.7081C23.8174 11.7527 23.9415 12.1341 23.7168 12.3528L21.5173 14.4946C21.4279 14.5816 21.3873 14.707 21.4085 14.8298L21.9327 17.8582C21.9862 18.1676 21.6609 18.4035 21.3834 18.2565L18.6768 16.8222C18.5661 16.7636 18.4336 16.7636 18.323 16.8222L15.6163 18.2565C15.3388 18.4036 15.0135 18.1676 15.0671 17.8582L15.5912 14.8298C15.6125 14.707 15.5718 14.5816 15.4825 14.4946L13.2829 12.3528C13.0582 12.134 13.1824 11.7527 13.4927 11.7081L16.5254 11.2724C16.6491 11.2546 16.756 11.1768 16.8111 11.0645L18.1605 8.30794C18.2987 8.02561 18.701 8.02561 18.8393 8.30794V8.30794Z" fill="#FAA515"/>
</svg>

